<?xml version="1.0" encoding="utf-8"?>
<!-- Generator: Adobe Illustrator 25.0.1, SVG Export Plug-In . SVG Version: 6.00 Build 0)  -->
<svg version="1.1" id="Capa_1" xmlns="http://www.w3.org/2000/svg" xmlns:xlink="http://www.w3.org/1999/xlink" x="0px" y="0px"
	 viewBox="0 0 110.1600037 86.7600021" style="enable-background:new 0 0 110.1600037 86.7600021;" xml:space="preserve">
<style type="text/css">
	.st0{fill-rule:evenodd;clip-rule:evenodd;fill:#F47920;}
	.st1{fill:#005884;}
	.st2{fill:#F0B52A;}
	.st3{fill:none;stroke:#005884;stroke-width:0.227;stroke-linecap:round;stroke-linejoin:round;stroke-miterlimit:22.9260006;}
	.st4{fill:#F47920;}
	.st5{fill:none;stroke:#F47920;stroke-width:0.227;stroke-linecap:round;stroke-linejoin:round;stroke-miterlimit:22.9260006;}
</style>
<g>
	<g>
		<path class="st0" d="M9.0935192,12.9134932c0,1.6450195-1.309021,2.95401-2.9530029,2.95401
			c-1.6110229,0-2.9540405-1.3089905-2.9540405-2.95401c0-1.6129761,1.3430176-2.9559937,2.9540405-2.9559937
			C7.7844982,9.9574995,9.0935192,11.3005171,9.0935192,12.9134932"/>
		<path class="st0" d="M15.7605114,6.3215132c0,1.6110229-1.3080444,2.9550171-2.9520264,2.9550171
			c-1.6119995,0-2.9539795-1.3439941-2.9539795-2.9550171c0-1.6459961,1.34198-2.9559937,2.9539795-2.9559937
			C14.452467,3.3655195,15.7605114,4.6755171,15.7605114,6.3215132"/>
		<path class="st0" d="M25.7395153,3.3994856c0,1.6100159-1.31604,2.95401-2.9370117,2.95401
			c-1.6539917,0-2.9700317-1.3439941-2.9700317-2.95401c0-1.6459962,1.31604-2.9549866,2.9700317-2.9549866
			C24.4234753,0.4444989,25.7395153,1.7534894,25.7395153,3.3994856"/>
		<path class="st0" d="M35.7545319,6.3375044c0,1.6200256-1.3140259,2.9380188-2.9690552,2.9380188
			c-1.619997,0-2.935976-1.3179932-2.935976-2.9380188c0-1.6539917,1.315979-2.9729919,2.935976-2.9729919
			C34.440506,3.3645124,35.7545319,4.6835127,35.7545319,6.3375044"/>
		<path class="st0" d="M42.440506,12.9134932c0,1.6440125-1.3410034,2.95401-2.9540405,2.95401
			c-1.6450195,0-2.9530029-1.3099976-2.9530029-2.95401c0-1.6129761,1.3079834-2.9559937,2.9530029-2.9559937
			C41.0995026,9.9574995,42.440506,11.3005171,42.440506,12.9134932"/>
		<path class="st0" d="M72.8695221,47.6945c0-1.6459961-1.309021-2.9549866-2.9520264-2.9549866
			c-1.6110229,0-2.9550171,1.3089905-2.9550171,2.9549866c0,1.6130066,1.3439941,2.9550171,2.9550171,2.9550171
			C71.5605011,50.6495171,72.8695221,49.3075066,72.8695221,47.6945"/>
		<path class="st0" d="M79.5375519,54.2865105c0-1.6109924-1.3100586-2.9539795-2.9530029-2.9539795
			c-1.6110229,0-2.9540405,1.3429871-2.9540405,2.9539795c0,1.6460266,1.3430176,2.9560242,2.9540405,2.9560242
			C78.2274933,57.2425346,79.5375519,55.9325371,79.5375519,54.2865105"/>
		<path class="st0" d="M89.5155182,57.2085075c0-1.6099854-1.3190308-2.9539795-2.9380493-2.9539795
			c-1.6529541,0-2.9689941,1.3439941-2.9689941,2.9539795c0,1.6450195,1.31604,2.9570007,2.9689941,2.9570007
			C88.1964874,60.1655083,89.5155182,58.8535271,89.5155182,57.2085075"/>
		<path class="st0" d="M99.5295563,54.2695122c0-1.6199951-1.3150024-2.9369812-2.9690552-2.9369812
			c-1.6199951,0-2.9369507,1.3169861-2.9369507,2.9369812c0,1.6550293,1.3169556,2.9730225,2.9369507,2.9730225
			C98.2145538,57.2425346,99.5295563,55.9245415,99.5295563,54.2695122"/>
		<path class="st0" d="M106.216507,47.6945c0-1.644989-1.3400269-2.9549866-2.9530029-2.9549866
			c-1.6460571,0-2.9530029,1.3099976-2.9530029,2.9549866c0,1.6130066,1.3069458,2.9550171,2.9530029,2.9550171
			C104.8764801,50.6495171,106.216507,49.3075066,106.216507,47.6945"/>
		<path class="st1" d="M44.7805328,19.3725071h-1.526001c-1.5440063,0-2.6530151,0.4820251-3.3240356,1.4510193
			c-0.6849976,0.9830017-1.0289917,2.6040039-1.0289917,4.8980103v16.5860004c0,3.4919739-0.3259888,6.5029907-0.9979858,9.0469971
			c-0.6710205,2.5279846-2.2449951,4.6329956-4.7420044,6.2879944c-2.4940205,1.6549988-5.8170185,2.4799805-9.9960346,2.4799805
			c-4.0409546,0-7.3150024-0.7479858-9.8579712-2.2149963c-2.5419922-1.4660034-4.1959839-3.3699951-4.9910278-5.6929932
			c-0.7940063-2.3249817-1.18396-5.8999939-1.18396-10.7519836v-15.975008c0-2.0899963-0.2820435-3.6199951-0.8430176-4.6170044
			c-0.5449829-0.9980164-1.7449951-1.4980164-3.5720215-1.4980164h-1.527954v-1.1239929h17.6549683v1.1239929h-1.5739746
			c-1.2950439,0-2.3410034,0.3580017-3.151001,1.0760193c-0.8120117,0.7019958-1.217041,2.3859863-1.217041,5.0390015v17.8330097
			c0,3.3849792,0.3270264,6.0699768,0.9830322,8.0809937c0.6560059,1.9969788,1.8079834,3.526001,3.4299927,4.571991
			c1.6389771,1.0450134,3.697998,1.5610046,6.2249756,1.5610046c2.401001,0,4.6620483-0.5159912,6.7680054-1.5469971
			c2.1069965-1.0299988,3.6180439-2.4320068,4.5239887-4.2270203c0.9040527-1.7939758,1.3560181-5.0239868,1.3560181-9.7039795
			V25.4875278c0-2.7140198-0.375-4.3980103-1.1380005-5.0859985c-0.7650146-0.6870117-1.8259888-1.0290222-3.1989765-1.0290222
			h-1.5289917v-1.1239929h14.4580097V19.3725071z"/>
		<path class="st1" d="M68.3145294,18.9014988H67.473526c-1.0130005,0-1.6820068,0.2440186-2.0150146,0.7440186
			c-0.3359985,0.4859924-0.4990234,1.3999939-0.4990234,2.7109985v19.9970112h-0.6329956L48.6864777,23.2625217v14.6029987
			c0,1.5570068,0.217041,2.5159912,0.6420288,2.8959961c0.434021,0.3699951,1.059021,0.5599976,1.882019,0.5599976h0.8329468
			v0.6530151h-8.2589722v-0.6530151h0.8220215c0.7319946,0,1.3379517-0.1789856,1.8280029-0.5509949
			c0.4799805-0.3710022,0.7149658-1.3399963,0.7149658-2.9049988V21.3615208
			c-0.7969971-0.9219971-1.5369873-1.5639954-2.2449951-1.927002c-0.7039795-0.3609924-1.5079956-0.53302-2.4320068-0.53302
			v-0.6519775h6.4400024l14.5010376,17.7980061V22.3565159c0-1.54599-0.2190552-2.5029907-0.6620483-2.8869934
			c-0.43396-0.3789978-1.0579834-0.5680237-1.8729858-0.5680237h-0.822998v-0.6519775h8.2590332V18.9014988z"/>
		<path class="st2" d="M79.5955353,42.3535271l-1.3610229-4.75h-6.4609985l-1.4450073,4.75h-6.0019531l7.4469604-24.1050129
			h7.8220215l7.5390015,24.1050129H79.5955353z M73.0285187,32.3415337h3.9160156l-1.9580078-6.9909992L73.0285187,32.3415337z
			 M87.5505524,42.3535271V18.2485142h9.3219604c4.0450439,0,7.0740356,1.2000122,9.0880127,3.6040039
			c2.0130005,2.3999939,3.0189819,5.1800232,3.0189819,8.3309937c0,3.6050129-1.0780029,6.534029-3.2359619,8.7890034
			c-2.1630249,2.2540283-4.9660034,3.381012-8.4120483,3.381012H87.5505524z M94.9435577,36.8085136h1.9289551
			c1.223999,0,2.2550049-0.5969849,3.0980225-1.7829895c0.8389893-1.1900024,1.2589722-2.8099976,1.2589722-4.8540058
			c0-1.7590027-0.3729858-3.2669983-1.1199951-4.5379944c-0.7479858-1.2720032-1.8250122-1.9110107-3.2369995-1.9110107h-1.9289551
			V36.8085136z"/>
		<path class="st1" d="M6.7775402,64.1705093h0.8449707v5.2969971c0,1.0639954-0.2609863,1.8240051-0.7810059,2.2879944
			C6.3195324,72.2175064,5.636549,72.448494,4.7915173,72.448494c-0.9379883,0-1.6329956-0.2389832-2.0859985-0.7130127
			c-0.4489746-0.4779968-0.6779785-1.2329712-0.6779785-2.2679749v-5.2969971H3.044508v5.2969971
			c0,0.6319885,0.0740356,1.0759888,0.2210083,1.3339844c0.1470337,0.257019,0.367981,0.4460144,0.6660156,0.5700073
			c0.2960205,0.1229858,0.6090088,0.1839905,0.9329834,0.1839905c0.625,0,1.1019897-0.1629944,1.4260254-0.4949951
			c0.3239746-0.32901,0.4869995-0.8569946,0.4869995-1.5929871V64.1705093z M14.1235485,72.2865067h-0.8770142v-3.8580017
			c0-0.5550232-0.1190186-0.9460144-0.3619995-1.1740112c-0.2420044-0.2250061-0.53302-0.3389893-0.8800049-0.3389893
			c-0.4749756,0-0.8729858,0.190979-1.1959839,0.572998c-0.3240356,0.3789978-0.4860229,0.8809814-0.4860229,1.5039978v3.2940063
			H9.3895397v-6.006012h0.8689575v1.105011c0.4869995-0.8470154,1.118042-1.2720032,1.8930054-1.2720032
			c0.4500122,0,0.8320313,0.1170044,1.1459961,0.3469849c0.31604,0.2360229,0.53302,0.4940186,0.6490479,0.7850037
			c0.1159668,0.2879944,0.177002,0.8099976,0.177002,1.5679932V72.2865067z M16.9515514,65.2045059H15.94557v-1.0339966h1.0059814
			V65.2045059z M16.9215221,72.2865067h-0.934021v-6.006012h0.934021V72.2865067z M23.1825085,66.2804947l-2.0759888,6.006012
			H20.136549l-2.1470337-6.006012h1.0369873l1.6690063,4.8819885l1.6550293-4.8819885H23.1825085z M28.0435314,70.4975052
			l0.8699951,0.1789856c-0.1589966,0.5100098-0.4710083,0.9349976-0.9290161,1.2690125
			c-0.4599609,0.3359985-0.9989624,0.5029907-1.6229858,0.5029907c-0.8189697,0-1.4840088-0.2900085-1.9910278-0.8659973
			c-0.506958-0.5759888-0.7609863-1.3330078-0.7609863-2.269989c0-0.9550171,0.2640381-1.7260132,0.7900391-2.3160095
			c0.5279541-0.5870056,1.1889648-0.8829956,1.9869995-0.8829956c0.7839966,0,1.4140015,0.2720032,1.8930054,0.8150024
			c0.4779663,0.5429993,0.7229614,1.3559875,0.7339478,2.4389954h-4.3649902c0,0.9079895,0.1920166,1.5209961,0.5700073,1.8370056
			c0.3829956,0.315979,0.7850342,0.4759827,1.2080078,0.4759827C27.1905041,71.6804886,27.7315197,71.2865067,28.0435314,70.4975052
			 M27.9915295,68.6714859c-0.0079956-0.3369751-0.065979-0.6359863-0.1680298-0.8989868
			c-0.1019897-0.2610168-0.276001-0.4819946-0.5229492-0.6679993c-0.2440186-0.1849976-0.5420532-0.2749939-0.8860474-0.2749939
			c-0.4629517,0-0.8549805,0.1659851-1.1789551,0.4979858c-0.322998,0.3340149-0.507019,0.7799988-0.5430298,1.3439941H27.9915295z
			 M31.3495007,72.2865067h-0.9329834v-6.006012h0.8190308v1.4030151c0.289978-0.6610107,0.5799561-1.0900269,0.869997-1.2870178
			c0.2919922-0.196991,0.5899658-0.2949829,0.8949585-0.2949829c0.0960083,0,0.2210083,0.0089722,0.3710327,0.0269775v0.8890076
			h-0.190979c-0.5160522,0-0.9450073,0.1929932-1.2850361,0.5759888c-0.34198,0.3860168-0.5219727,0.8919983-0.5460205,1.5200195
			V72.2865067z M33.6935577,70.7274857l0.8909912-0.1819763c0.1959839,0.7579956,0.8219604,1.1349792,1.8779907,1.1349792
			c0.3889771,0,0.7160034-0.0870056,0.9859619-0.2619934c0.2700195-0.1749878,0.4040527-0.4200134,0.4040527-0.7369995
			c0-0.4719849-0.342041-0.7709961-1.0290527-0.8970032l-1.2639771-0.2399902
			c-0.4970093-0.0930176-0.8889771-0.2799988-1.184021-0.559021c-0.2919922-0.2769775-0.4379883-0.6409912-0.4379883-1.0999756
			c0-0.5010071,0.1970215-0.9250183,0.6000366-1.2640076c0.3999634-0.3399963,0.9379883-0.5079956,1.6159668-0.5079956
			c1.3040161,0,2.1069946,0.5099792,2.4140015,1.5289917l-0.8560181,0.1849976
			c-0.2449951-0.6269836-0.7509766-0.9400024-1.5159912-0.9400024c-0.381958,0-0.6919556,0.0780029-0.9359741,0.2350159
			c-0.2449951,0.1579895-0.3670044,0.3769836-0.3670044,0.6560059c0,0.4440002,0.3129883,0.7249756,0.934021,0.8389893
			l1.1689453,0.2080078c1.2270508,0.2219849,1.8400269,0.8139954,1.8400269,1.7779846
			c0,0.552002-0.2299805,0.9980164-0.684021,1.3359985c-0.4559937,0.3410034-1.0629883,0.5090027-1.8189697,0.5090027
			C34.9085236,72.448494,34.0295563,71.8744888,33.6935577,70.7274857 M41.1125031,65.2045059h-1.007019v-1.0339966h1.007019
			V65.2045059z M41.0815582,72.2865067h-0.9329834v-6.006012h0.9329834V72.2865067z M47.631546,64.1705093v8.1159973h-0.8470459
			v-1.0290222c-0.4209595,0.7940063-1.0539551,1.1910095-1.8989868,1.1910095c-0.7009888,0-1.2769775-0.2949829-1.7299805-0.8850098
			c-0.4500122-0.5869751-0.677002-1.3329773-0.677002-2.2309875c0-0.9200134,0.2249756-1.6879883,0.6729736-2.2980042
			c0.4470215-0.6130066,1.0400391-0.92099,1.78302-0.92099c0.7200317,0,1.3099976,0.3299866,1.7659912,0.9869995v-2.9299927
			H47.631546z M46.7005157,68.6015091c0-0.5280151-0.1619873-0.9500122-0.4829712-1.2669983
			c-0.3210449-0.3190002-0.6970215-0.4780273-1.1210327-0.4780273c-0.4649658,0-0.8469849,0.2070007-1.1449585,0.6200256
			c-0.3010254,0.4119873-0.4510498,0.9899902-0.4510498,1.7349854c0,0.8059998,0.1400146,1.4190063,0.4140015,1.8380127
			c0.276001,0.4199829,0.6540527,0.6309814,1.132019,0.6309814c0.4359741,0,0.8209839-0.1829834,1.1519775-0.5469971
			c0.335022-0.3639832,0.5020142-0.7919922,0.5020142-1.2839966V68.6015091z M54.2005157,72.2865067h-0.9259644
			c-0.0370483-0.1900024-0.0720215-0.5490112-0.1069946-1.0820007c-0.4140015,0.8299866-1.1140137,1.243988-2.1070557,1.243988
			c-0.6719971,0-1.1900024-0.1799927-1.5499878-0.5360107c-0.3609619-0.3569946-0.5419922-0.7839966-0.5419922-1.2829895
			c0-0.6090088,0.2590332-1.1069946,0.7750244-1.4970093c0.5149536-0.3909912,1.3899536-0.5869751,2.6269531-0.5869751
			c0.1670532,0,0.4300537,0.0099792,0.7970581,0.0239868c0-0.473999-0.0360107-0.8190002-0.1100464-1.0289917
			c-0.0739746-0.2140198-0.2290039-0.3829956-0.4679565-0.5110168c-0.2369995-0.125-0.5500488-0.1900024-0.9370117-0.1900024
			c-0.9490356,0-1.4990234,0.3610229-1.6539917,1.0840149l-0.8619995-0.151001
			c0.2099609-1.1059875,1.09198-1.6589966,2.651001-1.6589966c0.8269653,0,1.4169922,0.1839905,1.7630005,0.552002
			c0.3449707,0.3670044,0.5199585,1.0019836,0.5199585,1.9039917v2.552002
			C54.0705109,71.5455093,54.1135406,71.9335098,54.2005157,72.2865067 M53.1675568,69.2834854
			c-0.3810425-0.0220032-0.6700439-0.0350037-0.8670044-0.0350037c-0.7380371,0-1.3130493,0.1190186-1.7189941,0.3630066
			c-0.4090576,0.2420044-0.6140137,0.5950012-0.6140137,1.0570068c0,0.29599,0.1119995,0.5450134,0.3319702,0.75
			c0.2189941,0.2059937,0.5369873,0.3099976,0.9520264,0.3099976c0.5639648,0,1.0280151-0.2049866,1.3880005-0.6130066
			c0.3629761-0.4079895,0.5449829-0.8880005,0.5449829-1.4389954
			C53.1845245,69.5644913,53.1775055,69.4365005,53.1675568,69.2834854 M60.6275177,64.1705093v8.1159973h-0.848999v-1.0290222
			c-0.4190063,0.7940063-1.0529785,1.1910095-1.8969727,1.1910095c-0.7030029,0-1.2789917-0.2949829-1.7300415-0.8850098
			c-0.4509888-0.5869751-0.6779785-1.3329773-0.6779785-2.2309875c0-0.9200134,0.2230225-1.6879883,0.6729736-2.2980042
			c0.4470215-0.6130066,1.0420532-0.92099,1.7810059-0.92099c0.723999,0,1.3099976,0.3299866,1.7670288,0.9869995v-2.9299927
			H60.6275177z M59.6945343,68.6015091c0-0.5280151-0.1610107-0.9500122-0.4819946-1.2669983
			c-0.3190308-0.3190002-0.6959839-0.4780273-1.1210327-0.4780273c-0.4660034,0-0.8469849,0.2070007-1.1459961,0.6200256
			c-0.2999878,0.4119873-0.4489746,0.9899902-0.4489746,1.7349854c0,0.8059998,0.1369629,1.4190063,0.4119873,1.8380127
			c0.2769775,0.4199829,0.6539917,0.6309814,1.1340332,0.6309814c0.4359741,0,0.8189697-0.1829834,1.1529541-0.5469971
			c0.3330078-0.3639832,0.4990234-0.7919922,0.4990234-1.2839966V68.6015091z M71.5935211,72.2865067h-0.9849854
			l-4.1970215-7.0750122l0.0109863,0.5329895c0.0120239,0.20401,0.0180054,0.3740234,0.0180054,0.5130005v6.0290222h-0.8200073
			v-8.1159973h1.2720337l3.9260254,6.617981l-0.0120239-0.5650024c-0.0090332-0.2219849-0.0130005-0.4190063-0.0130005-0.5899963
			v-5.4629822h0.7999878V72.2865067z M78.2385406,72.2865067h-0.9260254
			c-0.032959-0.1900024-0.0709839-0.5490112-0.1040039-1.0820007c-0.4140015,0.8299866-1.1170044,1.243988-2.1069946,1.243988
			c-0.6740112,0-1.1879883-0.1799927-1.5509644-0.5360107c-0.3610229-0.3569946-0.5420532-0.7839966-0.5420532-1.2829895
			c0-0.6090088,0.2590332-1.1069946,0.7720337-1.4970093c0.5169678-0.3909912,1.3939819-0.5869751,2.6300049-0.5869751
			c0.1669922,0,0.4309692,0.0099792,0.7979736,0.0239868c0-0.473999-0.0369873-0.8190002-0.1119995-1.0289917
			c-0.072998-0.2140198-0.2269897-0.3829956-0.46698-0.5110168c-0.2379761-0.125-0.5499878-0.1900024-0.9379883-0.1900024
			c-0.9470215,0-1.4990234,0.3610229-1.6530151,1.0840149l-0.8629761-0.151001
			c0.2109985-1.1059875,1.0939941-1.6589966,2.6529541-1.6589966c0.8270264,0,1.4160156,0.1839905,1.7630005,0.552002
			c0.3450317,0.3670044,0.5200195,1.0019836,0.5200195,1.9039917v2.552002
			C78.1115265,71.5455093,78.1535187,71.9335098,78.2385406,72.2865067 M77.2085114,69.2834854
			c-0.381958-0.0220032-0.6709595-0.0350037-0.8689575-0.0350037c-0.7380371,0-1.3120117,0.1190186-1.7200317,0.3630066
			c-0.4060059,0.2420044-0.6119995,0.5950012-0.6119995,1.0570068c0,0.29599,0.1119995,0.5450134,0.3309937,0.75
			c0.2200317,0.2059937,0.5369873,0.3099976,0.9550171,0.3099976c0.5620117,0,1.026001-0.2049866,1.3880005-0.6130066
			c0.3629761-0.4079895,0.5419922-0.8880005,0.5419922-1.4389954C77.223526,69.5644913,77.216507,69.4365005,77.2085114,69.2834854
			 M83.5265045,70.1825027l0.8450317,0.1479797c-0.1199951,0.6610107-0.3840332,1.1809998-0.7930298,1.5550232
			c-0.4069824,0.375-0.9159546,0.5629883-1.5279541,0.5629883c-0.8260498,0-1.4590454-0.3059998-1.8950195-0.9159851
			c-0.4299927-0.6110229-0.6470337-1.3560181-0.6470337-2.2369995c0-0.9110107,0.2280273-1.6690063,0.6870117-2.2730103
			c0.4559937-0.6059875,1.0800171-0.9089966,1.8670044-0.9089966c0.6560059,0,1.1799927,0.1950073,1.572998,0.5870056
			c0.3950195,0.3889771,0.6400146,0.8929749,0.7360229,1.5130005l-0.8450317,0.1589966
			c-0.157959-0.9880066-0.6369629-1.4850159-1.4389648-1.4850159c-0.5150146,0-0.9110107,0.2189941-1.1890259,0.6570129
			c-0.2780151,0.4369812-0.4169922,1.0050049-0.4169922,1.7039795c0,0.7690125,0.1389771,1.3670044,0.414978,1.7930298
			c0.2750244,0.4259949,0.6630249,0.6389771,1.1610107,0.6389771
			C82.8305206,71.6804886,83.3195343,71.1814957,83.5265045,70.1825027 M86.6135406,65.2045059h-1.007019v-1.0339966h1.007019
			V65.2045059z M86.5825348,72.2865067h-0.934021v-6.006012h0.934021V72.2865067z M90.5975494,72.448494
			c-0.8270264,0-1.4700317-0.3059998-1.9310303-0.9159851c-0.4630127-0.6110229-0.690979-1.3680115-0.690979-2.2710266
			c0-0.9559937,0.2579956-1.7199707,0.776001-2.289978c0.5189819-0.5700073,1.1669922-0.8580017,1.9389648-0.8580017
			c0.8290405,0,1.4800415,0.3009949,1.960022,0.9020081c0.4760132,0.6009827,0.7160034,1.3499756,0.7160034,2.2509766
			c0,0.9370117-0.2579956,1.6990051-0.7730103,2.2920227C92.0775299,72.1504898,91.4115143,72.448494,90.5975494,72.448494
			 M90.6675568,71.6804886c0.4749756,0,0.8719482-0.197998,1.1939697-0.5889893s0.4819946-1.0020142,0.4819946-1.8300171
			c0-0.8329773-0.1679688-1.4379883-0.5050049-1.8119812c-0.3369751-0.3760071-0.7329712-0.5620117-1.18396-0.5620117
			c-0.4640503,0-0.8560181,0.1880188-1.177002,0.5690002c-0.3210449,0.3770142-0.4820557,0.9779968-0.4820557,1.7980042
			c0,0.868988,0.1610107,1.4890137,0.4820557,1.8640137C89.7985382,71.4944839,90.1945343,71.6804886,90.6675568,71.6804886
			 M99.5005035,72.2865067h-0.875v-3.8580017c0-0.5550232-0.1189575-0.9460144-0.3599854-1.1740112
			c-0.2449951-0.2250061-0.5369873-0.3389893-0.882019-0.3389893c-0.4749756,0-0.875,0.190979-1.1959839,0.572998
			c-0.3239746,0.3789978-0.4859619,0.8809814-0.4859619,1.5039978v3.2940063h-0.934021v-6.006012h0.8690186v1.105011
			c0.4879761-0.8470154,1.117981-1.2720032,1.8939819-1.2720032c0.4500122,0,0.8319702,0.1170044,1.1450195,0.3469849
			c0.3179932,0.2360229,0.5319824,0.4940186,0.6499634,0.7850037c0.1149902,0.2879944,0.1749878,0.8099976,0.1749878,1.5679932
			V72.2865067z M106.0695343,72.2865067h-0.927002c-0.0350342-0.1900024-0.072998-0.5490112-0.1060181-1.0820007
			c-0.4140015,0.8299866-1.1140137,1.243988-2.105957,1.243988c-0.6740112,0-1.19104-0.1799927-1.5500488-0.5360107
			c-0.3629761-0.3569946-0.5419922-0.7839966-0.5419922-1.2829895c0-0.6090088,0.2590332-1.1069946,0.7720337-1.4970093
			c0.5159912-0.3909912,1.3919678-0.5869751,2.6269531-0.5869751c0.1670532,0,0.4330444,0.0099792,0.7990112,0.0239868
			c0-0.473999-0.0360107-0.8190002-0.1109619-1.0289917c-0.0740356-0.2140198-0.2290039-0.3829956-0.467041-0.5110168
			c-0.2399902-0.125-0.552002-0.1900024-0.9379883-0.1900024c-0.947998,0-1.5,0.3610229-1.6539917,1.0840149l-0.8619995-0.151001
			c0.2119751-1.1059875,1.0930176-1.6589966,2.6500244-1.6589966c0.8299561,0,1.4179688,0.1839905,1.7639771,0.552002
			c0.3469849,0.3670044,0.5209961,1.0019836,0.5209961,1.9039917v2.552002
			C105.9395294,71.5455093,105.9815216,71.9335098,106.0695343,72.2865067 M105.0365143,69.2834854
			c-0.381958-0.0220032-0.6719971-0.0350037-0.8689575-0.0350037c-0.7350464,0-1.3110352,0.1190186-1.7200317,0.3630066
			c-0.4039917,0.2420044-0.6119995,0.5950012-0.6119995,1.0570068c0,0.29599,0.1110229,0.5450134,0.3320313,0.75
			c0.2179565,0.2059937,0.5379639,0.3099976,0.9529419,0.3099976c0.5640259,0,1.0270386-0.2049866,1.3880005-0.6130066
			c0.3640137-0.4079895,0.5450439-0.8880005,0.5450439-1.4389954
			C105.0535431,69.5644913,105.046524,69.4365005,105.0365143,69.2834854 M108.7385406,72.2865067h-0.9329834v-8.1159973h0.9329834
			V72.2865067z"/>
		<path class="st3" d="M6.7775402,64.1705093h0.8449707v5.2969971c0,1.0639954-0.2609863,1.8240051-0.7810059,2.2879944
			C6.3195324,72.2175064,5.636549,72.448494,4.7915173,72.448494c-0.9379883,0-1.6329956-0.2389832-2.0859985-0.7130127
			c-0.4489746-0.4779968-0.6779785-1.2329712-0.6779785-2.2679749v-5.2969971H3.044508v5.2969971
			c0,0.6319885,0.0740356,1.0759888,0.2210083,1.3339844c0.1470337,0.257019,0.367981,0.4460144,0.6660156,0.5700073
			c0.2960205,0.1229858,0.6090088,0.1839905,0.9329834,0.1839905c0.625,0,1.1019897-0.1629944,1.4260254-0.4949951
			c0.3239746-0.32901,0.4869995-0.8569946,0.4869995-1.5929871V64.1705093z M14.1235485,72.2865067h-0.8770142v-3.8580017
			c0-0.5550232-0.1190186-0.9460144-0.3619995-1.1740112c-0.2420044-0.2250061-0.53302-0.3389893-0.8800049-0.3389893
			c-0.4749756,0-0.8729858,0.190979-1.1959839,0.572998c-0.3240356,0.3789978-0.4860229,0.8809814-0.4860229,1.5039978v3.2940063
			H9.3895397v-6.006012h0.8689575v1.105011c0.4869995-0.8470154,1.118042-1.2720032,1.8930054-1.2720032
			c0.4500122,0,0.8320313,0.1170044,1.1459961,0.3469849c0.31604,0.2360229,0.53302,0.4940186,0.6490479,0.7850037
			c0.1159668,0.2879944,0.177002,0.8099976,0.177002,1.5679932V72.2865067z M16.9515514,65.2045059H15.94557v-1.0339966h1.0059814
			V65.2045059z M16.9215221,72.2865067h-0.934021v-6.006012h0.934021V72.2865067z M23.1825085,66.2804947l-2.0759888,6.006012
			H20.136549l-2.1470337-6.006012h1.0369873l1.6690063,4.8819885l1.6550293-4.8819885H23.1825085z M28.0435314,70.4975052
			l0.8699951,0.1789856c-0.1589966,0.5100098-0.4710083,0.9349976-0.9290161,1.2690125
			c-0.4599609,0.3359985-0.9989624,0.5029907-1.6229858,0.5029907c-0.8189697,0-1.4840088-0.2900085-1.9910278-0.8659973
			c-0.506958-0.5759888-0.7609863-1.3330078-0.7609863-2.269989c0-0.9550171,0.2640381-1.7260132,0.7900391-2.3160095
			c0.5279541-0.5870056,1.1889648-0.8829956,1.9869995-0.8829956c0.7839966,0,1.4140015,0.2720032,1.8930054,0.8150024
			c0.4779663,0.5429993,0.7229614,1.3559875,0.7339478,2.4389954h-4.3649902c0,0.9079895,0.1920166,1.5209961,0.5700073,1.8370056
			c0.3829956,0.315979,0.7850342,0.4759827,1.2080078,0.4759827C27.1905041,71.6804886,27.7315197,71.2865067,28.0435314,70.4975052
			z M27.9915295,68.6714859c-0.0079956-0.3369751-0.065979-0.6359863-0.1680298-0.8989868
			c-0.1019897-0.2610168-0.276001-0.4819946-0.5229492-0.6679993c-0.2440186-0.1849976-0.5420532-0.2749939-0.8860474-0.2749939
			c-0.4629517,0-0.8549805,0.1659851-1.1789551,0.4979858c-0.322998,0.3340149-0.507019,0.7799988-0.5430298,1.3439941H27.9915295z
			 M31.3495007,72.2865067h-0.9329834v-6.006012h0.8190308v1.4030151c0.289978-0.6610107,0.5799561-1.0900269,0.869997-1.2870178
			c0.2919922-0.196991,0.5899658-0.2949829,0.8949585-0.2949829c0.0960083,0,0.2210083,0.0089722,0.3710327,0.0269775v0.8890076
			h-0.190979c-0.5160522,0-0.9450073,0.1929932-1.2850361,0.5759888c-0.34198,0.3860168-0.5219727,0.8919983-0.5460205,1.5200195
			V72.2865067z M33.6935577,70.7274857l0.8909912-0.1819763c0.1959839,0.7579956,0.8219604,1.1349792,1.8779907,1.1349792
			c0.3889771,0,0.7160034-0.0870056,0.9859619-0.2619934c0.2700195-0.1749878,0.4040527-0.4200134,0.4040527-0.7369995
			c0-0.4719849-0.342041-0.7709961-1.0290527-0.8970032l-1.2639771-0.2399902
			c-0.4970093-0.0930176-0.8889771-0.2799988-1.184021-0.559021c-0.2919922-0.2769775-0.4379883-0.6409912-0.4379883-1.0999756
			c0-0.5010071,0.1970215-0.9250183,0.6000366-1.2640076c0.3999634-0.3399963,0.9379883-0.5079956,1.6159668-0.5079956
			c1.3040161,0,2.1069946,0.5099792,2.4140015,1.5289917l-0.8560181,0.1849976
			c-0.2449951-0.6269836-0.7509766-0.9400024-1.5159912-0.9400024c-0.381958,0-0.6919556,0.0780029-0.9359741,0.2350159
			c-0.2449951,0.1579895-0.3670044,0.3769836-0.3670044,0.6560059c0,0.4440002,0.3129883,0.7249756,0.934021,0.8389893
			l1.1689453,0.2080078c1.2270508,0.2219849,1.8400269,0.8139954,1.8400269,1.7779846
			c0,0.552002-0.2299805,0.9980164-0.684021,1.3359985c-0.4559937,0.3410034-1.0629883,0.5090027-1.8189697,0.5090027
			C34.9085236,72.448494,34.0295563,71.8744888,33.6935577,70.7274857z M41.1125031,65.2045059h-1.007019v-1.0339966h1.007019
			V65.2045059z M41.0815582,72.2865067h-0.9329834v-6.006012h0.9329834V72.2865067z M47.631546,64.1705093v8.1159973h-0.8470459
			v-1.0290222c-0.4209595,0.7940063-1.0539551,1.1910095-1.8989868,1.1910095c-0.7009888,0-1.2769775-0.2949829-1.7299805-0.8850098
			c-0.4500122-0.5869751-0.677002-1.3329773-0.677002-2.2309875c0-0.9200134,0.2249756-1.6879883,0.6729736-2.2980042
			c0.4470215-0.6130066,1.0400391-0.92099,1.78302-0.92099c0.7200317,0,1.3099976,0.3299866,1.7659912,0.9869995v-2.9299927
			H47.631546z M46.7005157,68.6015091c0-0.5280151-0.1619873-0.9500122-0.4829712-1.2669983
			c-0.3210449-0.3190002-0.6970215-0.4780273-1.1210327-0.4780273c-0.4649658,0-0.8469849,0.2070007-1.1449585,0.6200256
			c-0.3010254,0.4119873-0.4510498,0.9899902-0.4510498,1.7349854c0,0.8059998,0.1400146,1.4190063,0.4140015,1.8380127
			c0.276001,0.4199829,0.6540527,0.6309814,1.132019,0.6309814c0.4359741,0,0.8209839-0.1829834,1.1519775-0.5469971
			c0.335022-0.3639832,0.5020142-0.7919922,0.5020142-1.2839966V68.6015091z M54.2005157,72.2865067h-0.9259644
			c-0.0370483-0.1900024-0.0720215-0.5490112-0.1069946-1.0820007c-0.4140015,0.8299866-1.1140137,1.243988-2.1070557,1.243988
			c-0.6719971,0-1.1900024-0.1799927-1.5499878-0.5360107c-0.3609619-0.3569946-0.5419922-0.7839966-0.5419922-1.2829895
			c0-0.6090088,0.2590332-1.1069946,0.7750244-1.4970093c0.5149536-0.3909912,1.3899536-0.5869751,2.6269531-0.5869751
			c0.1670532,0,0.4300537,0.0099792,0.7970581,0.0239868c0-0.473999-0.0360107-0.8190002-0.1100464-1.0289917
			c-0.0739746-0.2140198-0.2290039-0.3829956-0.4679565-0.5110168c-0.2369995-0.125-0.5500488-0.1900024-0.9370117-0.1900024
			c-0.9490356,0-1.4990234,0.3610229-1.6539917,1.0840149l-0.8619995-0.151001
			c0.2099609-1.1059875,1.09198-1.6589966,2.651001-1.6589966c0.8269653,0,1.4169922,0.1839905,1.7630005,0.552002
			c0.3449707,0.3670044,0.5199585,1.0019836,0.5199585,1.9039917v2.552002
			C54.0705109,71.5455093,54.1135406,71.9335098,54.2005157,72.2865067z M53.1675568,69.2834854
			c-0.3810425-0.0220032-0.6700439-0.0350037-0.8670044-0.0350037c-0.7380371,0-1.3130493,0.1190186-1.7189941,0.3630066
			c-0.4090576,0.2420044-0.6140137,0.5950012-0.6140137,1.0570068c0,0.29599,0.1119995,0.5450134,0.3319702,0.75
			c0.2189941,0.2059937,0.5369873,0.3099976,0.9520264,0.3099976c0.5639648,0,1.0280151-0.2049866,1.3880005-0.6130066
			c0.3629761-0.4079895,0.5449829-0.8880005,0.5449829-1.4389954
			C53.1845245,69.5644913,53.1775055,69.4365005,53.1675568,69.2834854z M60.6275177,64.1705093v8.1159973h-0.848999v-1.0290222
			c-0.4190063,0.7940063-1.0529785,1.1910095-1.8969727,1.1910095c-0.7030029,0-1.2789917-0.2949829-1.7300415-0.8850098
			c-0.4509888-0.5869751-0.6779785-1.3329773-0.6779785-2.2309875c0-0.9200134,0.2230225-1.6879883,0.6729736-2.2980042
			c0.4470215-0.6130066,1.0420532-0.92099,1.7810059-0.92099c0.723999,0,1.3099976,0.3299866,1.7670288,0.9869995v-2.9299927
			H60.6275177z M59.6945343,68.6015091c0-0.5280151-0.1610107-0.9500122-0.4819946-1.2669983
			c-0.3190308-0.3190002-0.6959839-0.4780273-1.1210327-0.4780273c-0.4660034,0-0.8469849,0.2070007-1.1459961,0.6200256
			c-0.2999878,0.4119873-0.4489746,0.9899902-0.4489746,1.7349854c0,0.8059998,0.1369629,1.4190063,0.4119873,1.8380127
			c0.2769775,0.4199829,0.6539917,0.6309814,1.1340332,0.6309814c0.4359741,0,0.8189697-0.1829834,1.1529541-0.5469971
			c0.3330078-0.3639832,0.4990234-0.7919922,0.4990234-1.2839966V68.6015091z M71.5935211,72.2865067h-0.9849854
			l-4.1970215-7.0750122l0.0109863,0.5329895c0.0120239,0.20401,0.0180054,0.3740234,0.0180054,0.5130005v6.0290222h-0.8200073
			v-8.1159973h1.2720337l3.9260254,6.617981l-0.0120239-0.5650024c-0.0090332-0.2219849-0.0130005-0.4190063-0.0130005-0.5899963
			v-5.4629822h0.7999878V72.2865067z M78.2385406,72.2865067h-0.9260254
			c-0.032959-0.1900024-0.0709839-0.5490112-0.1040039-1.0820007c-0.4140015,0.8299866-1.1170044,1.243988-2.1069946,1.243988
			c-0.6740112,0-1.1879883-0.1799927-1.5509644-0.5360107c-0.3610229-0.3569946-0.5420532-0.7839966-0.5420532-1.2829895
			c0-0.6090088,0.2590332-1.1069946,0.7720337-1.4970093c0.5169678-0.3909912,1.3939819-0.5869751,2.6300049-0.5869751
			c0.1669922,0,0.4309692,0.0099792,0.7979736,0.0239868c0-0.473999-0.0369873-0.8190002-0.1119995-1.0289917
			c-0.072998-0.2140198-0.2269897-0.3829956-0.46698-0.5110168c-0.2379761-0.125-0.5499878-0.1900024-0.9379883-0.1900024
			c-0.9470215,0-1.4990234,0.3610229-1.6530151,1.0840149l-0.8629761-0.151001
			c0.2109985-1.1059875,1.0939941-1.6589966,2.6529541-1.6589966c0.8270264,0,1.4160156,0.1839905,1.7630005,0.552002
			c0.3450317,0.3670044,0.5200195,1.0019836,0.5200195,1.9039917v2.552002
			C78.1115265,71.5455093,78.1535187,71.9335098,78.2385406,72.2865067z M77.2085114,69.2834854
			c-0.381958-0.0220032-0.6709595-0.0350037-0.8689575-0.0350037c-0.7380371,0-1.3120117,0.1190186-1.7200317,0.3630066
			c-0.4060059,0.2420044-0.6119995,0.5950012-0.6119995,1.0570068c0,0.29599,0.1119995,0.5450134,0.3309937,0.75
			c0.2200317,0.2059937,0.5369873,0.3099976,0.9550171,0.3099976c0.5620117,0,1.026001-0.2049866,1.3880005-0.6130066
			c0.3629761-0.4079895,0.5419922-0.8880005,0.5419922-1.4389954C77.223526,69.5644913,77.216507,69.4365005,77.2085114,69.2834854z
			 M83.5265045,70.1825027l0.8450317,0.1479797c-0.1199951,0.6610107-0.3840332,1.1809998-0.7930298,1.5550232
			c-0.4069824,0.375-0.9159546,0.5629883-1.5279541,0.5629883c-0.8260498,0-1.4590454-0.3059998-1.8950195-0.9159851
			c-0.4299927-0.6110229-0.6470337-1.3560181-0.6470337-2.2369995c0-0.9110107,0.2280273-1.6690063,0.6870117-2.2730103
			c0.4559937-0.6059875,1.0800171-0.9089966,1.8670044-0.9089966c0.6560059,0,1.1799927,0.1950073,1.572998,0.5870056
			c0.3950195,0.3889771,0.6400146,0.8929749,0.7360229,1.5130005l-0.8450317,0.1589966
			c-0.157959-0.9880066-0.6369629-1.4850159-1.4389648-1.4850159c-0.5150146,0-0.9110107,0.2189941-1.1890259,0.6570129
			c-0.2780151,0.4369812-0.4169922,1.0050049-0.4169922,1.7039795c0,0.7690125,0.1389771,1.3670044,0.414978,1.7930298
			c0.2750244,0.4259949,0.6630249,0.6389771,1.1610107,0.6389771
			C82.8305206,71.6804886,83.3195343,71.1814957,83.5265045,70.1825027z M86.6135406,65.2045059h-1.007019v-1.0339966h1.007019
			V65.2045059z M86.5825348,72.2865067h-0.934021v-6.006012h0.934021V72.2865067z M90.5975494,72.448494
			c-0.8270264,0-1.4700317-0.3059998-1.9310303-0.9159851c-0.4630127-0.6110229-0.690979-1.3680115-0.690979-2.2710266
			c0-0.9559937,0.2579956-1.7199707,0.776001-2.289978c0.5189819-0.5700073,1.1669922-0.8580017,1.9389648-0.8580017
			c0.8290405,0,1.4800415,0.3009949,1.960022,0.9020081c0.4760132,0.6009827,0.7160034,1.3499756,0.7160034,2.2509766
			c0,0.9370117-0.2579956,1.6990051-0.7730103,2.2920227C92.0775299,72.1504898,91.4115143,72.448494,90.5975494,72.448494z
			 M90.6675568,71.6804886c0.4749756,0,0.8719482-0.197998,1.1939697-0.5889893s0.4819946-1.0020142,0.4819946-1.8300171
			c0-0.8329773-0.1679688-1.4379883-0.5050049-1.8119812c-0.3369751-0.3760071-0.7329712-0.5620117-1.18396-0.5620117
			c-0.4640503,0-0.8560181,0.1880188-1.177002,0.5690002c-0.3210449,0.3770142-0.4820557,0.9779968-0.4820557,1.7980042
			c0,0.868988,0.1610107,1.4890137,0.4820557,1.8640137C89.7985382,71.4944839,90.1945343,71.6804886,90.6675568,71.6804886z
			 M99.5005035,72.2865067h-0.875v-3.8580017c0-0.5550232-0.1189575-0.9460144-0.3599854-1.1740112
			c-0.2449951-0.2250061-0.5369873-0.3389893-0.882019-0.3389893c-0.4749756,0-0.875,0.190979-1.1959839,0.572998
			c-0.3239746,0.3789978-0.4859619,0.8809814-0.4859619,1.5039978v3.2940063h-0.934021v-6.006012h0.8690186v1.105011
			c0.4879761-0.8470154,1.117981-1.2720032,1.8939819-1.2720032c0.4500122,0,0.8319702,0.1170044,1.1450195,0.3469849
			c0.3179932,0.2360229,0.5319824,0.4940186,0.6499634,0.7850037c0.1149902,0.2879944,0.1749878,0.8099976,0.1749878,1.5679932
			V72.2865067z M106.0695343,72.2865067h-0.927002c-0.0350342-0.1900024-0.072998-0.5490112-0.1060181-1.0820007
			c-0.4140015,0.8299866-1.1140137,1.243988-2.105957,1.243988c-0.6740112,0-1.19104-0.1799927-1.5500488-0.5360107
			c-0.3629761-0.3569946-0.5419922-0.7839966-0.5419922-1.2829895c0-0.6090088,0.2590332-1.1069946,0.7720337-1.4970093
			c0.5159912-0.3909912,1.3919678-0.5869751,2.6269531-0.5869751c0.1670532,0,0.4330444,0.0099792,0.7990112,0.0239868
			c0-0.473999-0.0360107-0.8190002-0.1109619-1.0289917c-0.0740356-0.2140198-0.2290039-0.3829956-0.467041-0.5110168
			c-0.2399902-0.125-0.552002-0.1900024-0.9379883-0.1900024c-0.947998,0-1.5,0.3610229-1.6539917,1.0840149l-0.8619995-0.151001
			c0.2119751-1.1059875,1.0930176-1.6589966,2.6500244-1.6589966c0.8299561,0,1.4179688,0.1839905,1.7639771,0.552002
			c0.3469849,0.3670044,0.5209961,1.0019836,0.5209961,1.9039917v2.552002
			C105.9395294,71.5455093,105.9815216,71.9335098,106.0695343,72.2865067z M105.0365143,69.2834854
			c-0.381958-0.0220032-0.6719971-0.0350037-0.8689575-0.0350037c-0.7350464,0-1.3110352,0.1190186-1.7200317,0.3630066
			c-0.4039917,0.2420044-0.6119995,0.5950012-0.6119995,1.0570068c0,0.29599,0.1110229,0.5450134,0.3320313,0.75
			c0.2179565,0.2059937,0.5379639,0.3099976,0.9529419,0.3099976c0.5640259,0,1.0270386-0.2049866,1.3880005-0.6130066
			c0.3640137-0.4079895,0.5450439-0.8880005,0.5450439-1.4389954
			C105.0535431,69.5644913,105.046524,69.4365005,105.0365143,69.2834854z M108.7385406,72.2865067h-0.9329834v-8.1159973h0.9329834
			V72.2865067z"/>
		<path class="st4" d="M7.6145153,84.1625137H6.5764904l-0.8209839-2.3740234H2.75453l-0.7269897,2.3740234H1.1804944
			l2.6310425-8.1180115h1.1609497L7.6145153,84.1625137z M5.5424938,81.0294876l-1.2470093-3.901001l-1.2630005,3.901001H5.5424938z
			 M8.9475231,84.1625137H8.4965343v-8.1180115h0.93396v3.1090088c0.4280396-0.7770081,1.0170288-1.1640015,1.7709961-1.1640015
			c0.69104,0,1.2650146,0.2720032,1.7330322,0.8139954c0.4649658,0.5440063,0.697998,1.3339844,0.697998,2.3670044
			c0,0.8930054-0.2290039,1.6399841-0.6870117,2.2449951s-1.0510254,0.9079895-1.7869873,0.9079895
			c-0.8150024,0-1.44104-0.3840027-1.8779907-1.1529846L8.9475231,84.1625137z M9.4304943,81.8085098
			c0.0419922,0.6139832,0.2330322,1.0589905,0.5679932,1.3370056c0.3340454,0.2779846,0.6880493,0.4159851,1.0620117,0.4159851
			c0.4730225,0,0.8580322-0.2049866,1.151001-0.618988c0.2900391-0.4130249,0.4360352-0.9760132,0.4360352-1.6950073
			c0-0.7709961-0.1400146-1.3800049-0.4240112-1.821991c-0.2810059-0.4410095-0.6719971-0.6620178-1.1699829-0.6620178
			c-0.394043,0-0.7460327,0.1560059-1.0620117,0.473999c-0.3140259,0.3150024-0.5040283,0.7210083-0.5610352,1.2210083V81.8085098z
			 M16.0005016,77.080513h-1.006958v-1.0360107h1.006958V77.080513z M15.9715099,84.1625137h-0.9349976v-6.006012h0.9349976
			V84.1625137z M21.7965221,82.3725052l0.867981,0.1799927c-0.15802,0.5100098-0.4689941,0.9360046-0.9279785,1.2690125
			c-0.460022,0.3349915-1.0010376,0.5019836-1.6229858,0.5019836c-0.8200073,0-1.4830322-0.2879944-1.9900513-0.8649902
			c-0.5089722-0.5769958-0.7619629-1.3349915-0.7619629-2.269989c0-0.9550171,0.2619629-1.7280273,0.789978-2.3150024
			c0.526001-0.5900269,1.1890259-0.8840027,1.9849854-0.8840027c0.7850342,0,1.4150391,0.2720032,1.894043,0.8139954
			c0.4779663,0.5440063,0.7229614,1.3559875,0.7359619,2.4400024H18.400526c0,0.9079895,0.190979,1.519989,0.5719604,1.8370056
			c0.3800049,0.315979,0.7820435,0.4749756,1.2050171,0.4749756C20.9434948,83.5554886,21.4845104,83.1615067,21.7965221,82.3725052
			 M21.742506,80.547493c-0.0079956-0.3370056-0.0650024-0.6369934-0.1660156-0.8999939
			c-0.1019897-0.2600098-0.2769775-0.4830017-0.5229492-0.6679993c-0.2440186-0.1839905-0.5420532-0.2749939-0.8870239-0.2749939
			c-0.4630127,0-0.8549805,0.1659851-1.1799927,0.5c-0.3220215,0.3309937-0.5029907,0.7789917-0.5440063,1.3429871H21.742506z
			 M25.1024914,84.1625137h-0.93396v-6.006012h0.8189697v1.4020081c0.2900391-0.6620178,0.5789795-1.0890198,0.8710327-1.2870178
			c0.2919922-0.197998,0.5889893-0.2929993,0.8959961-0.2929993c0.0949707,0,0.2189941,0.007019,0.367981,0.0240173v0.8899841
			h-0.1900024c-0.5169678,0-0.9450073,0.1940002-1.2849731,0.5769958c-0.3400269,0.3860168-0.5209961,0.8919983-0.5450439,1.5190125
			V84.1625137z M31.3095226,83.5205154v0.7369995c-0.3280029,0.0429993-0.6160278,0.065979-0.8560181,0.065979
			c-1.1619873,0-1.7440186-0.6069946-1.7440186-1.8200073v-3.6159973h-1.0629883v-0.7309875h1.0629883l0.0430298-1.5109863
			l0.8670044-0.0820007v1.5929871h1.3449707v0.7309875h-1.3449707v3.7700195c0,0.617981,0.3219604,0.9279785,0.9639893,0.9279785
			C30.7974987,83.5854874,31.0385265,83.5635147,31.3095226,83.5205154 M37.0335236,84.1625137h-0.927002
			c-0.0360107-0.1910095-0.0709839-0.5500183-0.1060181-1.0820007c-0.4129639,0.8279724-1.1140137,1.242981-2.1060181,1.242981
			c-0.6729736,0-1.1900024-0.1779785-1.5509644-0.5359802c-0.3599873-0.3560181-0.5419941-0.7840271-0.5419941-1.2840271
			c0-0.6069946,0.2600117-1.1059875,0.7739887-1.493988c0.5150146-0.3930054,1.3919678-0.5870056,2.6270142-0.5870056
			c0.1690063,0,0.4320068,0.0079956,0.7979736,0.0230103c0-0.473999-0.0349731-0.8190002-0.1109619-1.0310059
			c-0.0730591-0.2129822-0.2280273-0.3819885-0.467041-0.5090027c-0.2369995-0.1260071-0.5490112-0.1919861-0.9389648-0.1919861
			c-0.9470215,0-1.4990234,0.3619995-1.6520386,1.0849915l-0.8640156-0.151001
			c0.2110615-1.1059875,1.0960102-1.6579895,2.653017-1.6579895c0.8270264,0,1.4169922,0.1839905,1.7630005,0.5509949
			s0.519043,1.0019836,0.519043,1.9049988v2.552002C36.9025421,83.422493,36.9455109,83.8094864,37.0335236,84.1625137
			 M36.0005035,81.1584854c-0.382019-0.0219727-0.6690063-0.0349731-0.867981-0.0349731
			c-0.7369995,0-1.3120117,0.1199951-1.7189941,0.3649902c-0.40802,0.2399902-0.6130371,0.5929871-0.6130371,1.0559998
			c0,0.2950134,0.1130371,0.5450134,0.3309937,0.7489929c0.2190552,0.2070007,0.5380249,0.3110046,0.9530029,0.3110046
			c0.5650024,0,1.0270386-0.2059937,1.3890381-0.6130066c0.3629761-0.4079895,0.5440063-0.8890076,0.5440063-1.4389954
			C36.0175323,81.4404984,36.0095367,81.3115005,36.0005035,81.1584854 M47.0025177,78.1565018l-2.4060059,6.7089844
			c-0.3499756,0.9660034-0.9069824,1.4500122-1.6719971,1.4500122c-0.242981,0-0.5079956-0.0429993-0.8029785-0.125v-0.7309875
			c0.2420044,0.0559998,0.4509888,0.0839844,0.625,0.0839844c0.2969971,0,0.5459595-0.0859985,0.7459717-0.2569885
			c0.2009888-0.1700134,0.3989868-0.5809937,0.5980225-1.2369995l-2.0759888-5.8930054h0.9519653l1.6040039,4.5140076
			l1.6469727-4.5140076H47.0025177z M56.7505035,84.1625137h-0.927002
			c-0.0360107-0.1910095-0.0719604-0.5500183-0.1069946-1.0820007c-0.414978,0.8279724-1.1129761,1.242981-2.1049805,1.242981
			c-0.6749878,0-1.1890259-0.1779785-1.5499878-0.5359802c-0.3640137-0.3560181-0.5420532-0.7840271-0.5420532-1.2840271
			c0-0.6069946,0.2560425-1.1059875,0.7730103-1.493988c0.5150146-0.3930054,1.3920288-0.5870056,2.6270142-0.5870056
			c0.1660156,0,0.434021,0.0079956,0.7969971,0.0230103c0-0.473999-0.0360107-0.8190002-0.1110229-1.0310059
			c-0.0749512-0.2129822-0.2269897-0.3819885-0.46698-0.5090027c-0.2379761-0.1260071-0.5490112-0.1919861-0.9370117-0.1919861
			c-0.947998,0-1.5,0.3619995-1.6549683,1.0849915l-0.8599854-0.151001c0.2109985-1.1059875,1.09198-1.6579895,2.651001-1.6579895
			c0.8269653,0,1.4169922,0.1839905,1.7639771,0.5509949c0.3439941,0.3670044,0.5189819,1.0019836,0.5189819,1.9049988v2.552002
			C56.6204987,83.422493,56.6635284,83.8094864,56.7505035,84.1625137 M55.716507,81.1584854
			c-0.3800049-0.0219727-0.6690063-0.0349731-0.867981-0.0349731c-0.7369995,0-1.3120117,0.1199951-1.7189941,0.3649902
			c-0.4070435,0.2399902-0.6119995,0.5929871-0.6119995,1.0559998c0,0.2950134,0.1099854,0.5450134,0.3309937,0.7489929
			c0.2189941,0.2070007,0.5349731,0.3110046,0.9519653,0.3110046c0.5640259,0,1.0280151-0.2059937,1.3909912-0.6130066
			c0.3600464-0.4079895,0.5410156-0.8890076,0.5410156-1.4389954C55.7324982,81.4404984,55.7285309,81.3115005,55.716507,81.1584854
			 M62.6825104,84.1625137v-8.1180115h2.7219849c1.1459961,0,2.0380249,0.3919983,2.6760254,1.17099
			c0.6389771,0.78302,0.9580078,1.7380066,0.9580078,2.8670044c0,1.1459961-0.3120117,2.1140137-0.9330444,2.8980103
			c-0.6239624,0.7879944-1.4109497,1.1820068-2.367981,1.1820068H62.6825104z M63.697525,83.3005142h1.6459961
			c0.8729858,0,1.5349731-0.3010254,1.9879761-0.9049988c0.4520264-0.6020203,0.6780396-1.3970032,0.6780396-2.3830261
			c0-0.8009949-0.2160034-1.5209961-0.6459961-2.1589966c-0.4300537-0.6389771-1.1020508-0.9579773-2.0200195-0.9579773H63.697525
			V83.3005142z M71.4414825,77.080513h-1.006958v-1.0360107h1.006958V77.080513z M71.4095001,84.1625137h-0.93396v-6.006012h0.93396
			V84.1625137z M72.4635162,82.6034927l0.8909912-0.1809998c0.1970215,0.756012,0.8220215,1.1329956,1.8790283,1.1329956
			c0.3859863,0,0.7149658-0.0869751,0.9849854-0.2619934c0.2699585-0.1749878,0.4049683-0.4199829,0.4049683-0.7359924
			c0-0.4720154-0.3439941-0.7720032-1.0289917-0.8980103l-1.2669678-0.2380066
			c-0.4940186-0.0939941-0.8870239-0.2819824-1.1810303-0.5589905c-0.2929688-0.2789917-0.4400024-0.6439819-0.4400024-1.1009827
			c0-0.5039978,0.1990356-0.9260254,0.6010132-1.2640076c0.4000244-0.3390198,0.9370117-0.5079956,1.6149902-0.5079956
			c1.3040161,0,2.1080322,0.5090027,2.4150391,1.5289917l-0.8550415,0.1849976
			c-0.2470093-0.6279907-0.7520142-0.9400024-1.5169678-0.9400024c-0.3810425,0-0.69104,0.0780029-0.9360352,0.2350159
			c-0.2459717,0.1549988-0.3670044,0.3759766-0.3670044,0.6549988c0,0.4459839,0.3140259,0.7249756,0.9320068,0.8410034
			l1.1730347,0.2079773c1.2249756,0.2210083,1.8379517,0.8130188,1.8379517,1.7770081
			c0,0.5499878-0.2299805,0.9970093-0.68396,1.3359985c-0.4570313,0.3380127-1.0629883,0.5079956-1.8190308,0.5079956
			C73.6784821,84.323494,72.7995148,83.7504959,72.4635162,82.6034927 M81.6425323,83.5205154v0.7369995
			c-0.3290405,0.0429993-0.6160278,0.065979-0.8580322,0.065979c-1.1610107,0-1.7420044-0.6069946-1.7420044-1.8200073v-3.6159973
			h-1.0629883v-0.7309875h1.0629883l0.0419922-1.5109863l0.8690186-0.0820007v1.5929871h1.3430176v0.7309875h-1.3430176v3.7700195
			c0,0.617981,0.3209839,0.9279785,0.9609985,0.9279785C81.1305084,83.5854874,81.3715363,83.5635147,81.6425323,83.5205154
			 M87.3645172,84.1625137h-0.9249878c-0.0350342-0.1910095-0.0710449-0.5500183-0.1069946-1.0820007
			c-0.4130249,0.8279724-1.1140137,1.242981-2.1060181,1.242981c-0.6730347,0-1.1890259-0.1779785-1.5510254-0.5359802
			c-0.3599854-0.3560181-0.5419922-0.7840271-0.5419922-1.2840271c0-0.6069946,0.2590332-1.1059875,0.7730103-1.493988
			c0.5159912-0.3930054,1.3930054-0.5870056,2.6290283-0.5870056c0.1669922,0,0.4309692,0.0079956,0.7969971,0.0230103
			c0-0.473999-0.0360107-0.8190002-0.1100464-1.0310059c-0.0739746-0.2129822-0.2290039-0.3819885-0.4679565-0.5090027
			c-0.2369995-0.1260071-0.5500488-0.1919861-0.9370117-0.1919861c-0.947998,0-1.4990234,0.3619995-1.6539917,1.0849915
			l-0.8630371-0.151001c0.210022-1.1059875,1.0939941-1.6579895,2.6530151-1.6579895
			c0.8270264,0,1.4169922,0.1839905,1.7630005,0.5509949c0.3450317,0.3670044,0.5200195,1.0019836,0.5200195,1.9049988v2.552002
			C87.2365265,83.422493,87.2785187,83.8094864,87.3645172,84.1625137 M86.3325348,81.1584854
			c-0.3800049-0.0219727-0.6700439-0.0349731-0.8670044-0.0349731c-0.7380371,0-1.3110352,0.1199951-1.7200317,0.3649902
			c-0.407959,0.2399902-0.6129761,0.5929871-0.6129761,1.0559998c0,0.2950134,0.1119995,0.5450134,0.3319702,0.7489929
			c0.2200317,0.2070007,0.5369873,0.3110046,0.9520264,0.3110046c0.5650024,0,1.0269775-0.2059937,1.3889771-0.6130066
			c0.3630371-0.4079895,0.5440063-0.8890076,0.5440063-1.4389954
			C86.3495026,81.4404984,86.3435211,81.3115005,86.3325348,81.1584854 M93.8355255,84.1625137h-0.875V80.304512
			c0-0.5559998-0.1190186-0.9470215-0.3590088-1.1740112c-0.2449951-0.2250061-0.5369873-0.3389893-0.8840332-0.3389893
			c-0.4749756,0-0.8739624,0.190979-1.1969604,0.571991c-0.322998,0.3800049-0.4860229,0.8819885-0.4860229,1.5039978v3.2950134
			h-0.9320068v-6.006012h0.8690186v1.1059875c0.4879761-0.848999,1.117981-1.2729797,1.8959961-1.2729797
			c0.447998,0,0.8280029,0.1149902,1.1430054,0.3469849c0.3170166,0.2340088,0.5319824,0.4930115,0.6500244,0.78302
			c0.1149902,0.289978,0.1749878,0.8119812,0.1749878,1.5699768V84.1625137z M99.2514801,82.0575027l0.8430176,0.1480103
			c-0.1190186,0.6619873-0.3800049,1.1819763-0.7910156,1.5549927c-0.407959,0.3760071-0.9179688,0.5629883-1.5279541,0.5629883
			c-0.8280029,0-1.4590454-0.3049927-1.8930054-0.9159851c-0.4349976-0.6100159-0.6489868-1.3569946-0.6489868-2.2369995
			c0-0.9120178,0.2269897-1.6679993,0.6859741-2.2740173c0.4559937-0.6049805,1.0809937-0.9069824,1.8690186-0.9069824
			c0.6549683,0,1.1779785,0.1949768,1.5709839,0.5870056c0.3969727,0.3899841,0.6400146,0.8929749,0.7349854,1.5130005
			l-0.8430176,0.1599731c-0.157959-0.9919739-0.6380005-1.4859924-1.4379883-1.4859924
			c-0.5169678,0-0.9119873,0.2189941-1.1900024,0.6579895c-0.2789917,0.4360046-0.4169922,1.0040283-0.4169922,1.7020264
			c0,0.7689819,0.1380005,1.3659973,0.4140015,1.7919922s0.6619873,0.6399841,1.1619873,0.6399841
			C98.5534821,83.5554886,99.0445099,83.0554886,99.2514801,82.0575027 M102.3385162,77.080513h-1.007019v-1.0360107h1.007019
			V77.080513z M102.3065338,84.1625137h-0.9330444v-6.006012h0.9330444V84.1625137z M108.8684845,84.1625137h-0.9259644
			c-0.0360107-0.1910095-0.0709839-0.5500183-0.1049805-1.0820007c-0.4150391,0.8279724-1.1150513,1.242981-2.1070557,1.242981
			c-0.6739502,0-1.1889648-0.1779785-1.5499878-0.5359802c-0.3619995-0.3560181-0.5440063-0.7840271-0.5440063-1.2840271
			c0-0.6069946,0.2590332-1.1059875,0.7750244-1.493988c0.5150146-0.3930054,1.3919678-0.5870056,2.6279907-0.5870056
			c0.1660156,0,0.4329834,0.0079956,0.7980347,0.0230103c0-0.473999-0.0380249-0.8190002-0.1120605-1.0310059
			c-0.0739746-0.2129822-0.2279663-0.3819885-0.46698-0.5090027c-0.2359619-0.1260071-0.5499878-0.1919861-0.9379883-0.1919861
			c-0.9470215,0-1.5,0.3619995-1.6539917,1.0849915l-0.8630371-0.151001
			c0.2120361-1.1059875,1.0950317-1.6579895,2.6540527-1.6579895c0.8269653,0,1.4140015,0.1839905,1.7619629,0.5509949
			c0.3460083,0.3670044,0.5189819,1.0019836,0.5189819,1.9049988v2.552002
			C108.7384796,83.422493,108.782486,83.8094864,108.8684845,84.1625137 M107.8375397,81.1584854
			c-0.3830566-0.0219727-0.6700439-0.0349731-0.8690186-0.0349731c-0.7369995,0-1.3120117,0.1199951-1.7189941,0.3649902
			c-0.40802,0.2399902-0.6130371,0.5929871-0.6130371,1.0559998c0,0.2950134,0.1110229,0.5450134,0.3300171,0.7489929
			c0.2200317,0.2070007,0.5390015,0.3110046,0.9539795,0.3110046c0.56604,0,1.026001-0.2059937,1.3890381-0.6130066
			c0.3629761-0.4079895,0.5440063-0.8890076,0.5440063-1.4389954
			C107.8535309,81.4404984,107.8474884,81.3115005,107.8375397,81.1584854"/>
		<path class="st5" d="M7.6145153,84.1625137H6.5764904l-0.8209839-2.3740234H2.75453l-0.7269897,2.3740234H1.1804944
			l2.6310425-8.1180115h1.1609497L7.6145153,84.1625137z M5.5424938,81.0294876l-1.2470093-3.901001l-1.2630005,3.901001H5.5424938z
			 M8.9475231,84.1625137H8.4965343v-8.1180115h0.93396v3.1090088c0.4280396-0.7770081,1.0170288-1.1640015,1.7709961-1.1640015
			c0.69104,0,1.2650146,0.2720032,1.7330322,0.8139954c0.4649658,0.5440063,0.697998,1.3339844,0.697998,2.3670044
			c0,0.8930054-0.2290039,1.6399841-0.6870117,2.2449951s-1.0510254,0.9079895-1.7869873,0.9079895
			c-0.8150024,0-1.44104-0.3840027-1.8779907-1.1529846L8.9475231,84.1625137z M9.4304943,81.8085098
			c0.0419922,0.6139832,0.2330322,1.0589905,0.5679932,1.3370056c0.3340454,0.2779846,0.6880493,0.4159851,1.0620117,0.4159851
			c0.4730225,0,0.8580322-0.2049866,1.151001-0.618988c0.2900391-0.4130249,0.4360352-0.9760132,0.4360352-1.6950073
			c0-0.7709961-0.1400146-1.3800049-0.4240112-1.821991c-0.2810059-0.4410095-0.6719971-0.6620178-1.1699829-0.6620178
			c-0.394043,0-0.7460327,0.1560059-1.0620117,0.473999c-0.3140259,0.3150024-0.5040283,0.7210083-0.5610352,1.2210083V81.8085098z
			 M16.0005016,77.080513h-1.006958v-1.0360107h1.006958V77.080513z M15.9715099,84.1625137h-0.9349976v-6.006012h0.9349976
			V84.1625137z M21.7965221,82.3725052l0.867981,0.1799927c-0.15802,0.5100098-0.4689941,0.9360046-0.9279785,1.2690125
			c-0.460022,0.3349915-1.0010376,0.5019836-1.6229858,0.5019836c-0.8200073,0-1.4830322-0.2879944-1.9900513-0.8649902
			c-0.5089722-0.5769958-0.7619629-1.3349915-0.7619629-2.269989c0-0.9550171,0.2619629-1.7280273,0.789978-2.3150024
			c0.526001-0.5900269,1.1890259-0.8840027,1.9849854-0.8840027c0.7850342,0,1.4150391,0.2720032,1.894043,0.8139954
			c0.4779663,0.5440063,0.7229614,1.3559875,0.7359619,2.4400024H18.400526c0,0.9079895,0.190979,1.519989,0.5719604,1.8370056
			c0.3800049,0.315979,0.7820435,0.4749756,1.2050171,0.4749756C20.9434948,83.5554886,21.4845104,83.1615067,21.7965221,82.3725052
			z M21.742506,80.547493c-0.0079956-0.3370056-0.0650024-0.6369934-0.1660156-0.8999939
			c-0.1019897-0.2600098-0.2769775-0.4830017-0.5229492-0.6679993c-0.2440186-0.1839905-0.5420532-0.2749939-0.8870239-0.2749939
			c-0.4630127,0-0.8549805,0.1659851-1.1799927,0.5c-0.3220215,0.3309937-0.5029907,0.7789917-0.5440063,1.3429871H21.742506z
			 M25.1024914,84.1625137h-0.93396v-6.006012h0.8189697v1.4020081c0.2900391-0.6620178,0.5789795-1.0890198,0.8710327-1.2870178
			c0.2919922-0.197998,0.5889893-0.2929993,0.8959961-0.2929993c0.0949707,0,0.2189941,0.007019,0.367981,0.0240173v0.8899841
			h-0.1900024c-0.5169678,0-0.9450073,0.1940002-1.2849731,0.5769958c-0.3400269,0.3860168-0.5209961,0.8919983-0.5450439,1.5190125
			V84.1625137z M31.3095226,83.5205154v0.7369995c-0.3280029,0.0429993-0.6160278,0.065979-0.8560181,0.065979
			c-1.1619873,0-1.7440186-0.6069946-1.7440186-1.8200073v-3.6159973h-1.0629883v-0.7309875h1.0629883l0.0430298-1.5109863
			l0.8670044-0.0820007v1.5929871h1.3449707v0.7309875h-1.3449707v3.7700195c0,0.617981,0.3219604,0.9279785,0.9639893,0.9279785
			C30.7974987,83.5854874,31.0385265,83.5635147,31.3095226,83.5205154z M37.0335236,84.1625137h-0.927002
			c-0.0360107-0.1910095-0.0709839-0.5500183-0.1060181-1.0820007c-0.4129639,0.8279724-1.1140137,1.242981-2.1060181,1.242981
			c-0.6729736,0-1.1900024-0.1779785-1.5509644-0.5359802c-0.3599873-0.3560181-0.5419941-0.7840271-0.5419941-1.2840271
			c0-0.6069946,0.2600117-1.1059875,0.7739887-1.493988c0.5150146-0.3930054,1.3919678-0.5870056,2.6270142-0.5870056
			c0.1690063,0,0.4320068,0.0079956,0.7979736,0.0230103c0-0.473999-0.0349731-0.8190002-0.1109619-1.0310059
			c-0.0730591-0.2129822-0.2280273-0.3819885-0.467041-0.5090027c-0.2369995-0.1260071-0.5490112-0.1919861-0.9389648-0.1919861
			c-0.9470215,0-1.4990234,0.3619995-1.6520386,1.0849915l-0.8640156-0.151001
			c0.2110615-1.1059875,1.0960102-1.6579895,2.653017-1.6579895c0.8270264,0,1.4169922,0.1839905,1.7630005,0.5509949
			s0.519043,1.0019836,0.519043,1.9049988v2.552002C36.9025421,83.422493,36.9455109,83.8094864,37.0335236,84.1625137z
			 M36.0005035,81.1584854c-0.382019-0.0219727-0.6690063-0.0349731-0.867981-0.0349731
			c-0.7369995,0-1.3120117,0.1199951-1.7189941,0.3649902c-0.40802,0.2399902-0.6130371,0.5929871-0.6130371,1.0559998
			c0,0.2950134,0.1130371,0.5450134,0.3309937,0.7489929c0.2190552,0.2070007,0.5380249,0.3110046,0.9530029,0.3110046
			c0.5650024,0,1.0270386-0.2059937,1.3890381-0.6130066c0.3629761-0.4079895,0.5440063-0.8890076,0.5440063-1.4389954
			C36.0175323,81.4404984,36.0095367,81.3115005,36.0005035,81.1584854z M47.0025177,78.1565018l-2.4060059,6.7089844
			c-0.3499756,0.9660034-0.9069824,1.4500122-1.6719971,1.4500122c-0.242981,0-0.5079956-0.0429993-0.8029785-0.125v-0.7309875
			c0.2420044,0.0559998,0.4509888,0.0839844,0.625,0.0839844c0.2969971,0,0.5459595-0.0859985,0.7459717-0.2569885
			c0.2009888-0.1700134,0.3989868-0.5809937,0.5980225-1.2369995l-2.0759888-5.8930054h0.9519653l1.6040039,4.5140076
			l1.6469727-4.5140076H47.0025177z M56.7505035,84.1625137h-0.927002
			c-0.0360107-0.1910095-0.0719604-0.5500183-0.1069946-1.0820007c-0.414978,0.8279724-1.1129761,1.242981-2.1049805,1.242981
			c-0.6749878,0-1.1890259-0.1779785-1.5499878-0.5359802c-0.3640137-0.3560181-0.5420532-0.7840271-0.5420532-1.2840271
			c0-0.6069946,0.2560425-1.1059875,0.7730103-1.493988c0.5150146-0.3930054,1.3920288-0.5870056,2.6270142-0.5870056
			c0.1660156,0,0.434021,0.0079956,0.7969971,0.0230103c0-0.473999-0.0360107-0.8190002-0.1110229-1.0310059
			c-0.0749512-0.2129822-0.2269897-0.3819885-0.46698-0.5090027c-0.2379761-0.1260071-0.5490112-0.1919861-0.9370117-0.1919861
			c-0.947998,0-1.5,0.3619995-1.6549683,1.0849915l-0.8599854-0.151001c0.2109985-1.1059875,1.09198-1.6579895,2.651001-1.6579895
			c0.8269653,0,1.4169922,0.1839905,1.7639771,0.5509949c0.3439941,0.3670044,0.5189819,1.0019836,0.5189819,1.9049988v2.552002
			C56.6204987,83.422493,56.6635284,83.8094864,56.7505035,84.1625137z M55.716507,81.1584854
			c-0.3800049-0.0219727-0.6690063-0.0349731-0.867981-0.0349731c-0.7369995,0-1.3120117,0.1199951-1.7189941,0.3649902
			c-0.4070435,0.2399902-0.6119995,0.5929871-0.6119995,1.0559998c0,0.2950134,0.1099854,0.5450134,0.3309937,0.7489929
			c0.2189941,0.2070007,0.5349731,0.3110046,0.9519653,0.3110046c0.5640259,0,1.0280151-0.2059937,1.3909912-0.6130066
			c0.3600464-0.4079895,0.5410156-0.8890076,0.5410156-1.4389954C55.7324982,81.4404984,55.7285309,81.3115005,55.716507,81.1584854
			z M62.6825104,84.1625137v-8.1180115h2.7219849c1.1459961,0,2.0380249,0.3919983,2.6760254,1.17099
			c0.6389771,0.78302,0.9580078,1.7380066,0.9580078,2.8670044c0,1.1459961-0.3120117,2.1140137-0.9330444,2.8980103
			c-0.6239624,0.7879944-1.4109497,1.1820068-2.367981,1.1820068H62.6825104z M63.697525,83.3005142h1.6459961
			c0.8729858,0,1.5349731-0.3010254,1.9879761-0.9049988c0.4520264-0.6020203,0.6780396-1.3970032,0.6780396-2.3830261
			c0-0.8009949-0.2160034-1.5209961-0.6459961-2.1589966c-0.4300537-0.6389771-1.1020508-0.9579773-2.0200195-0.9579773H63.697525
			V83.3005142z M71.4414825,77.080513h-1.006958v-1.0360107h1.006958V77.080513z M71.4095001,84.1625137h-0.93396v-6.006012h0.93396
			V84.1625137z M72.4635162,82.6034927l0.8909912-0.1809998c0.1970215,0.756012,0.8220215,1.1329956,1.8790283,1.1329956
			c0.3859863,0,0.7149658-0.0869751,0.9849854-0.2619934c0.2699585-0.1749878,0.4049683-0.4199829,0.4049683-0.7359924
			c0-0.4720154-0.3439941-0.7720032-1.0289917-0.8980103l-1.2669678-0.2380066
			c-0.4940186-0.0939941-0.8870239-0.2819824-1.1810303-0.5589905c-0.2929688-0.2789917-0.4400024-0.6439819-0.4400024-1.1009827
			c0-0.5039978,0.1990356-0.9260254,0.6010132-1.2640076c0.4000244-0.3390198,0.9370117-0.5079956,1.6149902-0.5079956
			c1.3040161,0,2.1080322,0.5090027,2.4150391,1.5289917l-0.8550415,0.1849976
			c-0.2470093-0.6279907-0.7520142-0.9400024-1.5169678-0.9400024c-0.3810425,0-0.69104,0.0780029-0.9360352,0.2350159
			c-0.2459717,0.1549988-0.3670044,0.3759766-0.3670044,0.6549988c0,0.4459839,0.3140259,0.7249756,0.9320068,0.8410034
			l1.1730347,0.2079773c1.2249756,0.2210083,1.8379517,0.8130188,1.8379517,1.7770081
			c0,0.5499878-0.2299805,0.9970093-0.68396,1.3359985c-0.4570313,0.3380127-1.0629883,0.5079956-1.8190308,0.5079956
			C73.6784821,84.323494,72.7995148,83.7504959,72.4635162,82.6034927z M81.6425323,83.5205154v0.7369995
			c-0.3290405,0.0429993-0.6160278,0.065979-0.8580322,0.065979c-1.1610107,0-1.7420044-0.6069946-1.7420044-1.8200073v-3.6159973
			h-1.0629883v-0.7309875h1.0629883l0.0419922-1.5109863l0.8690186-0.0820007v1.5929871h1.3430176v0.7309875h-1.3430176v3.7700195
			c0,0.617981,0.3209839,0.9279785,0.9609985,0.9279785C81.1305084,83.5854874,81.3715363,83.5635147,81.6425323,83.5205154z
			 M87.3645172,84.1625137h-0.9249878c-0.0350342-0.1910095-0.0710449-0.5500183-0.1069946-1.0820007
			c-0.4130249,0.8279724-1.1140137,1.242981-2.1060181,1.242981c-0.6730347,0-1.1890259-0.1779785-1.5510254-0.5359802
			c-0.3599854-0.3560181-0.5419922-0.7840271-0.5419922-1.2840271c0-0.6069946,0.2590332-1.1059875,0.7730103-1.493988
			c0.5159912-0.3930054,1.3930054-0.5870056,2.6290283-0.5870056c0.1669922,0,0.4309692,0.0079956,0.7969971,0.0230103
			c0-0.473999-0.0360107-0.8190002-0.1100464-1.0310059c-0.0739746-0.2129822-0.2290039-0.3819885-0.4679565-0.5090027
			c-0.2369995-0.1260071-0.5500488-0.1919861-0.9370117-0.1919861c-0.947998,0-1.4990234,0.3619995-1.6539917,1.0849915
			l-0.8630371-0.151001c0.210022-1.1059875,1.0939941-1.6579895,2.6530151-1.6579895
			c0.8270264,0,1.4169922,0.1839905,1.7630005,0.5509949c0.3450317,0.3670044,0.5200195,1.0019836,0.5200195,1.9049988v2.552002
			C87.2365265,83.422493,87.2785187,83.8094864,87.3645172,84.1625137z M86.3325348,81.1584854
			c-0.3800049-0.0219727-0.6700439-0.0349731-0.8670044-0.0349731c-0.7380371,0-1.3110352,0.1199951-1.7200317,0.3649902
			c-0.407959,0.2399902-0.6129761,0.5929871-0.6129761,1.0559998c0,0.2950134,0.1119995,0.5450134,0.3319702,0.7489929
			c0.2200317,0.2070007,0.5369873,0.3110046,0.9520264,0.3110046c0.5650024,0,1.0269775-0.2059937,1.3889771-0.6130066
			c0.3630371-0.4079895,0.5440063-0.8890076,0.5440063-1.4389954
			C86.3495026,81.4404984,86.3435211,81.3115005,86.3325348,81.1584854z M93.8355255,84.1625137h-0.875V80.304512
			c0-0.5559998-0.1190186-0.9470215-0.3590088-1.1740112c-0.2449951-0.2250061-0.5369873-0.3389893-0.8840332-0.3389893
			c-0.4749756,0-0.8739624,0.190979-1.1969604,0.571991c-0.322998,0.3800049-0.4860229,0.8819885-0.4860229,1.5039978v3.2950134
			h-0.9320068v-6.006012h0.8690186v1.1059875c0.4879761-0.848999,1.117981-1.2729797,1.8959961-1.2729797
			c0.447998,0,0.8280029,0.1149902,1.1430054,0.3469849c0.3170166,0.2340088,0.5319824,0.4930115,0.6500244,0.78302
			c0.1149902,0.289978,0.1749878,0.8119812,0.1749878,1.5699768V84.1625137z M99.2514801,82.0575027l0.8430176,0.1480103
			c-0.1190186,0.6619873-0.3800049,1.1819763-0.7910156,1.5549927c-0.407959,0.3760071-0.9179688,0.5629883-1.5279541,0.5629883
			c-0.8280029,0-1.4590454-0.3049927-1.8930054-0.9159851c-0.4349976-0.6100159-0.6489868-1.3569946-0.6489868-2.2369995
			c0-0.9120178,0.2269897-1.6679993,0.6859741-2.2740173c0.4559937-0.6049805,1.0809937-0.9069824,1.8690186-0.9069824
			c0.6549683,0,1.1779785,0.1949768,1.5709839,0.5870056c0.3969727,0.3899841,0.6400146,0.8929749,0.7349854,1.5130005
			l-0.8430176,0.1599731c-0.157959-0.9919739-0.6380005-1.4859924-1.4379883-1.4859924
			c-0.5169678,0-0.9119873,0.2189941-1.1900024,0.6579895c-0.2789917,0.4360046-0.4169922,1.0040283-0.4169922,1.7020264
			c0,0.7689819,0.1380005,1.3659973,0.4140015,1.7919922s0.6619873,0.6399841,1.1619873,0.6399841
			C98.5534821,83.5554886,99.0445099,83.0554886,99.2514801,82.0575027z M102.3385162,77.080513h-1.007019v-1.0360107h1.007019
			V77.080513z M102.3065338,84.1625137h-0.9330444v-6.006012h0.9330444V84.1625137z M108.8684845,84.1625137h-0.9259644
			c-0.0360107-0.1910095-0.0709839-0.5500183-0.1049805-1.0820007c-0.4150391,0.8279724-1.1150513,1.242981-2.1070557,1.242981
			c-0.6739502,0-1.1889648-0.1779785-1.5499878-0.5359802c-0.3619995-0.3560181-0.5440063-0.7840271-0.5440063-1.2840271
			c0-0.6069946,0.2590332-1.1059875,0.7750244-1.493988c0.5150146-0.3930054,1.3919678-0.5870056,2.6279907-0.5870056
			c0.1660156,0,0.4329834,0.0079956,0.7980347,0.0230103c0-0.473999-0.0380249-0.8190002-0.1120605-1.0310059
			c-0.0739746-0.2129822-0.2279663-0.3819885-0.46698-0.5090027c-0.2359619-0.1260071-0.5499878-0.1919861-0.9379883-0.1919861
			c-0.9470215,0-1.5,0.3619995-1.6539917,1.0849915l-0.8630371-0.151001
			c0.2120361-1.1059875,1.0950317-1.6579895,2.6540527-1.6579895c0.8269653,0,1.4140015,0.1839905,1.7619629,0.5509949
			c0.3460083,0.3670044,0.5189819,1.0019836,0.5189819,1.9049988v2.552002
			C108.7384796,83.422493,108.782486,83.8094864,108.8684845,84.1625137z M107.8375397,81.1584854
			c-0.3830566-0.0219727-0.6700439-0.0349731-0.8690186-0.0349731c-0.7369995,0-1.3120117,0.1199951-1.7189941,0.3649902
			c-0.40802,0.2399902-0.6130371,0.5929871-0.6130371,1.0559998c0,0.2950134,0.1110229,0.5450134,0.3300171,0.7489929
			c0.2200317,0.2070007,0.5390015,0.3110046,0.9539795,0.3110046c0.56604,0,1.026001-0.2059937,1.3890381-0.6130066
			c0.3629761-0.4079895,0.5440063-0.8890076,0.5440063-1.4389954
			C107.8535309,81.4404984,107.8474884,81.3115005,107.8375397,81.1584854z"/>
	</g>
</g>
</svg>
